<svg width="772" height="769" fill="none" xmlns="http://www.w3.org/2000/svg"><path fill-rule="evenodd" clip-rule="evenodd" d="M95.295 285.555c21.29-56.344 49.307-110.368 96.951-147.217 48.171-37.256 107.669-55.067 168.491-58.081 62.604-3.103 127.537 4.842 178.83 40.869 51.346 36.064 75.28 96.501 99.287 154.472 25.723 62.118 67.348 128.678 44.091 191.761-23.137 62.755-102.723 77.855-157.593 116.1-52.342 36.484-92.595 95.962-156.059 102.522-65.456 6.766-126.674-29.576-180.27-67.756-53.377-38.024-104.5-84.685-122.272-147.764-17.337-61.535 5.947-125.103 28.544-184.906z" fill="url(#paint0_linear)"/><defs><linearGradient id="paint0_linear" x1="580.357" y1="590.491" x2="139.532" y2="-48.321" gradientUnits="userSpaceOnUse"><stop offset=".198" stop-color="#32C892"/><stop offset=".932" stop-color="#BEDF94"/></linearGradient></defs></svg>