<svg xmlns="http://www.w3.org/2000/svg" width="51" height="33"><g fill="none" fill-rule="evenodd"><g transform="translate(-.857 1)"><circle cx="16.857" cy="16" r="16" fill="#F30000"/><g fill="#FFF"><path d="M16.685 25.28c-4.06 0-6.183-2.512-6.183-6.4 0-3.872 2.5-6.33 6.474-6.33 4.214 0 6.184 2.72 6.184 6.365 0 3.87-2.313 6.365-6.475 6.365zm.052-1.901c2.877 0 4.042-1.953 4.042-4.482 0-2.546-1.268-4.447-3.922-4.447-2.775 0-3.991 1.901-3.991 4.412 0 2.459 1.181 4.517 3.87 4.517z"/><path d="M23.005 10.971l-1.717 4.654c-1.258-1.017-2.804-1.682-4.424-1.632-1.688-.044-3.372.66-4.665 1.736l-1.653-4.688a.806.806 0 01-.098.006.759.759 0 01-.734-.775.76.76 0 01.771-.739.76.76 0 01.753.757.718.718 0 01-.042.243l2.664 1.33.144.05a.364.364 0 00.418-.131c.05-.087.094-.176.133-.268l1.697-3.43a.742.742 0 01-.327-.611.788.788 0 01.789-.759c.426 0 .775.336.79.759a.744.744 0 01-.31.6l2.12 3.493c.043.082.092.161.146.237a.355.355 0 00.357.122c.05.004.1-.01.14-.04l2.51-1.361a.738.738 0 01-.058-.286.787.787 0 01.467-.747c.294-.13.64-.07.871.152a.78.78 0 01.185.86.79.79 0 01-.927.467z"/></g></g><path fill="#ACACAC" fill-rule="nonzero" d="M35.152 7.08c1.272 0 2.216-.696 2.216-2.264 0-1.288-.64-1.824-1.72-1.824-.624 0-1.096.16-1.464.36.04-.376.144-.792.376-.984.28-.232 1.328-.4 2.544-.592l-.168-.952c-1.36.24-2.6.552-3.064.96-.56.48-.736 1.88-.736 2.824 0 1.72.792 2.472 2.016 2.472zm.08-.848c-.712 0-1.08-.512-1.08-1.64 0-.12 0-.344.008-.472.336-.168.736-.312 1.16-.312.712 0 .984.448.984 1.056 0 .656-.24 1.368-1.072 1.368zm5.04.864c.576 0 1.128-.088 1.568-.24l-.168-.808c-.472.12-.848.184-1.256.184-.704 0-1.312-.192-1.304-1.12h2.848v-.384c0-1.384-.512-2.2-1.856-2.2-1.144 0-2.064.608-2.064 2.352 0 1.72.888 2.216 2.232 2.216zm.592-2.696h-1.728c.04-.72.424-1.104.928-1.104.552 0 .808.44.8 1.104zM44.856 7V3.448h1.416v-.816h-3.888v.816h1.408V7h1.064zm3.16.072c.64 0 1.056-.272 1.384-.528.104.392.584.496 1.12.496.04 0 .128 0 .208-.008l.04-.808c-.232-.008-.424-.056-.424-.272v-2.12c0-.928-.568-1.304-1.72-1.304-.696 0-1.192.128-1.672.32l.216.784c.392-.12.808-.2 1.264-.2.592 0 .872.136.872.64v.376l-.864.008c-.816.008-1.8.224-1.8 1.344 0 .824.56 1.272 1.376 1.272zm.304-.832c-.36 0-.64-.16-.64-.52 0-.384.32-.584.816-.592l.808-.032v.864c-.296.152-.688.28-.984.28z"/></g></svg>